<svg id="Feather" enable-background="new 0 0 64 64" viewBox="0 0 64 64" xmlns="http://www.w3.org/2000/svg"><g><g fill="#ffdc6e"><path d="m10.05169 13.09234.71128 2.30643c.58802 1.90673 2.08071 3.39943 3.98745 3.98745l2.30643.71128c.36907.11382.36907.63625 0 .75007l-2.30643.71128c-1.90673.58802-3.39943 2.08072-3.98745 3.98745l-.71128 2.30643c-.11382.36908-.63625.36908-.75007 0l-.71128-2.30643c-.58802-1.90673-2.08071-3.39943-3.98745-3.98745l-2.30643-.71128c-.36907-.11382-.36907-.63625 0-.75007l2.30643-.71128c1.90673-.58802 3.39943-2.08071 3.98745-3.98745l.71128-2.30643c.11382-.36908.63625-.36908.75007 0z"/><path d="m49.37711 43.77333.60244 1.9535c.49804 1.61497 1.76233 2.87925 3.37729 3.37729l1.9535.60244c.3126.0964.3126.53889 0 .63529l-1.9535.60244c-1.61496.49804-2.87925 1.76232-3.37729 3.37729l-.60244 1.9535c-.09641.3126-.53889.3126-.6353 0l-.60244-1.9535c-.49804-1.61497-1.76233-2.87925-3.37729-3.37729l-1.9535-.60244c-.3126-.0964-.3126-.53889 0-.63529l1.9535-.60244c1.61497-.49804 2.87925-1.76232 3.37729-3.37729l.60244-1.9535c.09641-.31259.53889-.31259.6353 0z"/><path d="m58.89869 13.65888.49828 1.61575c.41193 1.33575 1.45762 2.38144 2.79337 2.79337l1.61575.49828c.25855.07973.25855.44572 0 .52545l-1.61575.49828c-1.33575.41193-2.38144 1.45763-2.79337 2.79337l-.49828 1.61575c-.07973.25855-.44572.25855-.52545 0l-.49828-1.61575c-.41193-1.33574-1.45763-2.38144-2.79337-2.79337l-1.61575-.49828c-.25855-.07973-.25855-.44572 0-.52545l1.61575-.49828c1.33574-.41193 2.38144-1.45762 2.79337-2.79337l.49828-1.61575c.07973-.25856.44571-.25856.52545 0z"/></g><g><path d="m49.04445 22.16057c-.00402.0929-.00845.18553-.01343.27793-.03483.64545-.47184 1.19927-1.09092 1.38518-.34816.10456-.7104.20269-1.08781.28937-.93678.22146-1.809.35312-2.58378.42972.56338.65163 1.41875 1.48358 2.60367 2.2436.13826.08672.27502.1697.41025.24878.58598.34263.8764 1.04209.69662 1.69665-1.22295 4.4526-3.38383 8.65472-6.01761 12.54912-.3095.45764-.84233.7084-1.39345.66984-.42563-.02978-.86926-.07367-1.32505-.13456-.95601-.13635-1.81461-.3277-2.56693-.53384.29507.81123.78379 1.89176 1.61398 3.03234.00251.00341.00502.00681.00754.01022.42059.5696.43358 1.34818-.01107 1.8992-.70473.87334-1.42632 1.7258-2.16022 2.56295-7.63329 8.69022-22.39606 10.9555-30.64408 6.42537-.04896-.03144-.1042-.05304-.15944-.07463 1.42396-1.9615 2.60984-3.97202 3.56292-6.00744 1.50734-3.21799 3.39259-6.22192 5.51962-9.06317.3903-.52135 1.06785-.71959 1.6924-.53501.21862.06461.44601.12432.68265.17723 1.36762.32431 2.56224.35807 3.42789.31208-.49657-.61565-1.00616-1.3295-1.49842-2.15665-.19644-.32503-.3753-.64559-.53953-.96104-.29034-.55769-.21046-1.23755.20342-1.71087.24204-.27679.48674-.55189.7341-.82527 3.93544-4.37947 5.84982-9.99304 7.86946-15.58751.01286-.03714.03983-.10844.07512-.19934.22909-.59016.79863-.98879 1.43157-.97634.32669.00643.66887-.00043 1.02627-.02608 1.41015-.09757 2.5534-.41471 3.36467-.70984-.64531-.4484-1.34206-.97823-2.0634-1.62058-.12094-.10817-.23837-.21659-.35263-.32507-.58735-.55765-.64827-1.46965-.14219-2.10198 3.65509-4.56691 8.50908-6.77089 10.81328-6.34455 3.66034.68227 8.22493 9.24217 7.91453 15.68419z" fill="#f0f0fc"/><path d="m38.27768 46.23233c-.69487.85938-1.42634 1.71886-2.1577 2.55993-7.62511 8.68571-22.38169 10.95324-30.64687 6.4183-.03661-.0365-.09141-.0548-.14632-.0731 1.42634-1.95658 2.61484-3.96797 3.56574-6.01596 1.49944-3.2 3.38281-6.21719 5.50402-9.05145.40223-.53036 1.0788-.73147 1.70056-.53036.21942.05491.43884.10971.67656.16462 1.37143.32913 2.56004.36574 3.43772.31083-.49375-.60346-1.00569-1.31652-1.49944-2.1577-.20112-.31083-.38393-.63995-.54855-.95089-.29252-.56685-.20111-1.24342.21942-1.71886.23772-.27422.47545-.54855.73147-.82277.62165-.69487 1.18851-1.42634 1.71886-2.176 1.26172 3.49252 3.52913 6.49141 6.72913 8.50279 3.03538 1.90179 6.49141 2.66975 9.96574 2.43203h.01819c.18293.38404.43895.78627.74978 1.18861v.01819c.42053.56686.43883 1.33494-.01831 1.90179z" opacity=".15"/><path d="m2.00714 57.57384c-.95764.04087-1.817-.63763-1.9801-1.60672-.17672-1.05038.53155-2.04435 1.58197-2.22034 5.10953-.85866 14.8684-3.57875 22.80207-12.15332 4.15183-4.48575 7.24404-10.02985 8.9457-16.0327.29103-1.0247 1.35527-1.62373 2.37941-1.32905 1.02395.29034 1.62012 1.35543 1.32906 2.37941-1.8652 6.58516-5.26325 12.67129-9.82367 17.60055-8.7123 9.41429-19.39905 12.39717-24.99496 13.33673-.07913.01352-.15992.02204-.23948.02544z" fill="#a7a7b3"/></g></g></svg>