<svg id="Capa_1" enable-background="new 0 0 512 512" height="512" viewBox="0 0 512 512" width="512" xmlns="http://www.w3.org/2000/svg"><g><g><g><g><path d="m156.579 372.693c-13.886 6.056-30.054-.291-36.11-14.178l-4.652-10.665c-10.824-24.818-4.878-53.834 14.796-72.204 14.798-13.818 18.527-36.038 9.064-54.035-10.361-19.707-33.973-28.874-54.924-21.324-22.166 7.973-34.575 31.905-28.269 54.457.564 2.016 1.279 4.022 2.125 5.963 6.056 13.886-.291 30.054-14.178 36.11-13.886 6.056-30.054-.291-36.11-14.178-1.857-4.257-3.429-8.672-4.673-13.123-14.003-50.086 13.449-103.173 62.505-120.843 46.568-16.781 99.053 3.599 122.084 47.407 20.933 39.816 12.633 89.024-20.184 119.666-2.715 2.534-3.498 6.621-1.95 10.171l4.652 10.665c6.058 13.887-.289 30.055-14.176 36.111z" fill="#ffd15b"/></g><path d="m189.209 447.508c-13.886 6.056-30.054-.291-36.11-14.178l-.091-.208c-6.056-13.886.291-30.054 14.178-36.11 13.886-6.056 30.054.291 36.11 14.178l.091.208c6.056 13.887-.292 30.054-14.178 36.11z" fill="#ffd15b"/></g><g fill="#ffc344"><g><path d="m25.877 259.826c1.239 4.452 2.818 8.861 4.675 13.118 4.316 9.896 13.766 15.97 23.866 16.438-2.63 3.12-5.993 5.693-9.986 7.435-13.878 6.053-30.051-.287-36.109-14.177-1.857-4.258-3.423-8.672-4.663-13.124-14.014-50.092 13.448-103.177 62.498-120.847 1.757-.632 3.524-1.208 5.3-1.729-38.208 22.584-57.878 68.891-45.581 112.886z"/><path d="m152.84 265.949c-19.672 18.37-25.624 47.394-14.8 72.211l4.65 10.663c4.316 9.897 13.779 15.964 23.879 16.432-2.63 3.12-5.993 5.693-9.986 7.435-13.89 6.058-30.051-.287-36.109-14.177l-4.65-10.663c-10.823-24.817-4.884-53.835 14.8-72.211 14.794-13.822 18.517-36.029 9.054-54.025-8.893-16.929-27.564-26.081-45.927-23.528 3.866-3.166 8.313-5.719 13.235-7.491 20.951-7.553 44.561 1.612 54.922 21.324 9.462 17.996 5.727 40.209-9.068 54.03z"/></g><path d="m199.198 440.07c-2.63 3.12-5.993 5.693-9.986 7.435-13.89 6.058-30.051-.287-36.109-14.177l-.093-.214c-6.053-13.878.287-30.051 14.177-36.109 3.994-1.742 8.167-2.456 12.243-2.26-6.523 7.733-8.514 18.796-4.204 28.68l.093.214c4.317 9.895 13.78 15.963 23.879 16.431z"/></g></g><g><g><g><path d="m375.385 370.021c-14.633-3.921-23.318-18.963-19.397-33.596l3.012-11.239c7.008-26.153 29.746-45.135 56.581-47.233 20.185-1.579 36.952-16.629 40.772-36.6 4.184-21.868-8.564-43.755-29.652-50.912-22.302-7.584-46.923 3.393-56.052 24.958-.816 1.927-1.508 3.942-2.055 5.987-3.921 14.633-18.963 23.318-33.596 19.397s-23.318-18.963-19.397-33.596c1.202-4.486 2.725-8.918 4.527-13.174 20.274-47.892 74.833-72.288 124.206-55.523 46.873 15.909 75.206 64.563 65.906 113.174-8.454 44.182-45.619 77.484-90.381 80.986-3.702.289-6.863 2.997-7.865 6.737l-3.012 11.239c-3.922 14.632-18.964 23.316-33.597 19.395z" fill="#6fd7a3"/></g><path d="m354.259 448.861c-14.633-3.921-23.318-18.963-19.397-33.596l.059-.22c3.921-14.633 18.963-23.318 33.596-19.397s23.318 18.963 19.397 33.596l-.059.22c-3.921 14.634-18.962 23.318-33.596 19.397z" fill="#6fd7a3"/></g><g fill="#3ec3a4"><g><path d="m343.548 200.291c-1.806 4.254-3.32 8.685-4.522 13.172-2.794 10.429.809 21.068 8.414 27.731-4.002.8-8.235.716-12.443-.412-14.624-3.919-23.318-18.958-19.396-33.596 1.202-4.487 2.729-8.915 4.536-13.168 20.269-47.904 74.834-72.292 124.203-55.531 1.768.601 3.509 1.252 5.222 1.952-43.955-6.16-88.203 17.786-106.014 59.852z"/><path d="m439.005 284.226c-26.833 2.101-49.581 21.085-56.588 47.236l-3.011 11.236c-2.794 10.429.822 21.072 8.427 27.734-4.002.8-8.235.716-12.443-.412-14.638-3.922-23.318-18.958-19.396-33.596l3.011-11.236c7.008-26.152 29.741-45.139 56.588-47.236 20.184-1.585 36.939-16.628 40.758-36.598 3.6-18.781-5.294-37.576-21.244-47.027 4.996-.065 10.065.711 15.019 2.393 21.091 7.155 33.837 29.039 29.65 50.911-3.819 19.971-20.587 35.011-40.771 36.595z"/></g><path d="m366.707 449.272c-4.002.8-8.235.716-12.443-.412-14.638-3.922-23.318-18.958-19.396-33.595l.06-.225c3.919-14.624 18.958-23.318 33.595-19.396 4.209 1.128 7.917 3.171 10.982 5.865-9.921 1.98-18.375 9.389-21.166 19.805l-.06.225c-2.793 10.428.823 21.071 8.428 27.733z"/></g></g><g><g><g><path d="m268.304 333.571c-17.009 0-30.798-13.789-30.798-30.798v-13.064c0-30.399 19.143-57.592 47.635-67.665 21.431-7.578 35.242-28.772 33.581-51.54-1.818-24.931-22.003-44.963-46.952-46.597-26.39-1.743-49.902 17.315-53.535 43.355-.325 2.327-.489 4.713-.489 7.09 0 17.009-13.789 30.798-30.798 30.798s-30.798-13.789-30.798-30.798c0-5.214.364-10.464 1.081-15.603 8.07-57.83 60.149-100.141 118.564-96.308 55.456 3.632 100.322 48.163 104.362 103.584 3.671 50.371-26.956 97.287-74.482 114.092-3.931 1.39-6.572 5.244-6.572 9.592v13.064c-.001 17.009-13.79 30.798-30.799 30.798z" fill="#0573ce"/></g><path d="m268.304 425.211c-17.009 0-30.798-13.789-30.798-30.798v-.255c0-17.009 13.789-30.798 30.798-30.798s30.798 13.789 30.798 30.798v.255c0 17.009-13.789 30.798-30.798 30.798z" fill="#0573ce"/></g><g fill="#0067c5"><g><path d="m184.454 158.753c-.723 5.138-1.077 10.384-1.077 15.599 0 12.122 6.999 22.613 17.183 27.628-4.107 2.031-8.722 3.169-13.614 3.169-16.999 0-30.797-13.783-30.797-30.797 0-5.215.369-10.461 1.092-15.599 8.061-57.841 60.149-100.146 118.559-96.315 2.092.138 4.169.338 6.23.6-49.457 6.092-90.484 44.92-97.576 95.715z"/><path d="m312.367 222.041c-28.49 10.076-47.642 37.274-47.642 67.671v13.06c0 12.122 7.015 22.614 17.199 27.629-4.107 2.031-8.722 3.169-13.614 3.169-17.014 0-30.797-13.784-30.797-30.798v-13.06c0-30.398 19.137-57.595 47.642-67.671 21.429-7.584 35.228-28.767 33.566-51.534-1.554-21.414-16.66-39.212-36.705-44.827 5.4-1.523 11.122-2.154 16.983-1.769 24.952 1.631 45.135 21.66 46.95 46.596 1.661 22.767-12.153 43.949-33.582 51.534z"/></g><path d="m281.923 422.039c-4.107 2.031-8.722 3.169-13.614 3.169-17.014 0-30.797-13.783-30.797-30.797v-.262c0-16.999 13.783-30.797 30.797-30.797 4.892 0 9.507 1.138 13.614 3.169-10.184 5.03-17.199 15.522-17.199 27.628v.262c0 12.122 7.015 22.613 17.199 27.628z"/></g></g></g></svg>