<svg id="SVGRoot" height="24" viewBox="0 0 24 24" width="24" xmlns="http://www.w3.org/2000/svg" xmlns:svg="http://www.w3.org/2000/svg"><g id="g2712" stroke-linecap="round" stroke-linejoin="round"><path id="path2625" d="m12 2c-5.5169141 0-10 4.4830859-10 10 0 5.16243 3.9210848 9.420276 8.949219 9.945312.847781.088525 1.550781-.621942 1.550781-1.445312v-4c0-.282064.217936-.5.5-.5h6.5c.97194 0 1.946772-.625456 2.197266-1.619141.195611-.775977.297383-1.573407.302734-2.376953a.50005.50005 0 0 0 0-.002.50005.50005 0 0 0 0-.001906c0-5.5169141-4.483086-10-10-10z" fill="#eee"/><path id="path2644" d="m12 2c-.163233 0-.324995.005912-.486328.0136719 5.278647.2681734 9.486328 4.6418229 9.486328 9.9863281a.50005.50005 0 0 0 0 .002.50005.50005 0 0 0 0 .002c-.0054.803545-.107124 1.600977-.302734 2.376953-.250494.99359-1.225327 1.619047-2.197266 1.619047h1c.971939 0 1.946772-.625457 2.197266-1.619141.19561-.775976.297383-1.573408.302734-2.376953a.50005.50005 0 0 0 0-.002.50005.50005 0 0 0 0-.001906c0-5.5169086-4.483092-10-10-10zm0 14c-.282064 0-.5.217936-.5.5v4c0 .6344-.418698 1.200194-.998047 1.386719.147918.02222.297303.04293.447266.05859.84778.088528 1.550781-.62194 1.550781-1.445309v-4c0-.282064.217936-.5.5-.5z" fill="#e0e0e0"/><path id="path2619" d="m6.5 10c-.8225032 0-1.5.677497-1.5 1.5s.6774968 1.5 1.5 1.5 1.5-.677497 1.5-1.5-.6774968-1.5-1.5-1.5z" fill="#ef5350"/><path id="path2659" d="m6.5 10c-.1749959 0-.3432605.031683-.5.087891.5799554.207976 1 .764603 1 1.412109s-.4200446 1.204133-1 1.412109c.1567395.056208.3250041.087891.5.087891.8225024 0 1.5-.677498 1.5-1.5s-.6774976-1.5-1.5-1.5z" fill="#f44336"/><path id="path2613" d="m17.5 10c-.822503 0-1.5.677497-1.5 1.5s.677497 1.5 1.5 1.5 1.5-.677497 1.5-1.5-.677497-1.5-1.5-1.5z" fill="#ffca28"/><path id="path2649" d="m17.5 10c-.174996 0-.34326.03168-.5.08789.579955.207976 1 .764603 1 1.412109s-.420045 1.204133-1 1.412109c.15674.056209.325004.087892.5.087892.822502 0 1.5-.677498 1.5-1.5s-.677498-1.5-1.5-1.5z" fill="#ffc107"/><path id="path2607" d="m9 6c-.8225032 0-1.5.6774968-1.5 1.5s.6774968 1.5 1.5 1.5 1.5-.6774968 1.5-1.5-.6774968-1.5-1.5-1.5z" fill="#66bb6a"/><path id="path2664" d="m9 6c-.1749959 0-.3432605.0316826-.5.0878906.5799554.2079765 1 .764603 1 1.4121094s-.4200446 1.2041329-1 1.4121094c.1567395.056208.3250041.0878906.5.0878906.8225024 0 1.5-.6774976 1.5-1.5s-.6774976-1.5-1.5-1.5z" fill="#4caf50"/><path id="path2601" d="m15 6c-.822503 0-1.5.6774968-1.5 1.5s.677497 1.5 1.5 1.5 1.5-.6774968 1.5-1.5-.677497-1.5-1.5-1.5z" fill="#5c6bc0"/><path id="path2654" d="m15 6c-.174996 0-.34326.031683-.5.087891.579955.2079765 1 .764603 1 1.4121094s-.420045 1.2041329-1 1.4121094c.15674.0562076.325004.0878902.5.0878902.822502 0 1.5-.6774976 1.5-1.5s-.677498-1.5-1.5-1.5z" fill="#3f51b5"/></g></svg>